<!-- Generated by IcoMoon.io -->
<svg version="1.1" xmlns="http://www.w3.org/2000/svg" width="4992" height="768" viewBox="0 0 4992 768">
<title></title>
<g id="icomoon-ignore">
</g>
<path fill="#000" d="M2386.212 768.887c-3.845-7.393-7.985-13.899-11.534-20.996s-8.872-8.576-8.872-16.265-4.14-5.027-5.914-7.689c-5.824-6.066-10.842-12.971-14.842-20.5l-0.24-0.496c-3.253-8.576-10.942-13.604-13.604-22.18-2.335-5.315-5.209-9.895-8.648-13.987l0.071 0.088c-4.14-5.914-8.576-11.829-12.716-18.039l-16.561-26.024-27.503-41.106-14.195-21.588-18.631-29.572-18.335-27.798c-5.915-8.872-11.237-18.039-17.152-26.615s-10.054-13.308-14.786-20.109-8.28-13.604-12.421-20.701-2.070-4.436-8.28-3.844c0 55.892 0 111.784 0 167.972s0 111.489 0 167.972h-532.306c-0.917 0.207-1.971 0.325-3.052 0.325-6.429 0-11.879-4.187-13.775-9.982l-0.029-0.103c-4.010-8.138-8.338-15.117-13.254-21.627l0.242 0.335c-3.253-5.619-6.506-11.534-10.054-17.152s-9.167-14.195-13.603-21.588-7.097-12.716-10.942-18.631-10.351-15.082-15.674-22.771c-2.070-3.253-3.845-7.394-5.915-10.942-6.21-10.351-11.829-20.996-18.631-29.572s-11.534-17.744-17.152-26.911-17.152-26.023-25.137-39.036-11.829-20.405-18.039-29.572-14.195-24.25-21.588-36.374-12.421-20.405-19.222-29.572-8.576-12.125-12.716-18.335c-1.781-2.684-3.647-5.877-5.344-9.172l-0.274-0.587c-2.957-5.027-5.323-10.054-8.28-14.786l-14.786-23.362c-9.759-15.673-19.813-31.347-29.572-47.021l-8.28-15.673-13.899-23.658-2.662-5.915-10.351-15.082-15.082-25.137c-1.246-2.473-2.426-4.505-3.705-6.466l0.156 0.255-10.054-12.716-4.14-6.506h-2.070v525.505c0.32 3.617 0.948 6.938 1.867 10.135l-0.092-0.376c-2.14 1.067-4.621 1.891-7.231 2.342l-0.162 0.023h-534.968v-6.506q0-133.963 0-267.928c-0.069-1.105-0.109-2.396-0.109-3.697s0.040-2.592 0.117-3.872l-0.008 0.176c0-4.436-1.479-7.689-3.845-7.689-2.662 6.802-5.323 13.012-7.393 19.222s-3.845 15.082-6.21 22.475-5.914 13.308-9.167 20.109-5.027 12.716-8.28 18.631-8.872 16.856-13.899 25.137-9.759 15.969-15.082 23.658-8.576 10.351-13.012 15.378-10.942 14.491-16.856 20.996c-10.351 10.942-20.701 21.588-31.642 31.642-7.191 6.198-15.098 12.226-23.358 17.771l-0.892 0.564c-10.054 7.097-20.405 14.491-29.572 21.293-4.436 2.957-9.167 5.323-13.604 7.689s-13.012 5.619-18.926 9.464c-5.907 3.034-12.795 5.665-19.99 7.532l-0.711 0.157-22.771 8.576-4.436 1.774-17.744 5.027c-4.436 0-9.167 1.774-13.899 2.662l-18.039 4.436c-2.662 0-5.323 0-7.985 0s-2.662 1.774-3.844 2.662-2.070 1.774-2.957 1.774l-13.012-2.070h-1.774c-12.104 2.678-26.005 4.212-40.266 4.212-1.856 0-3.704-0.026-5.547-0.077l0.271 0.006h-5.619l-1.774-5.619c-5.915 7.985-13.603 5.323-20.405 4.14-1.871-1.204-4.030-2.21-6.322-2.909l-0.185-0.048c-10.025-0.542-19.402-2.665-28.102-6.125l0.599 0.21c-4.732-1.479-9.759-2.365-14.491-3.549s-11.237-2.070-16.856-3.549-7.394-2.957-11.237-4.436-14.491-4.436-21.588-7.393c-6.966-3.049-12.597-5.917-18.053-9.053l0.901 0.478c-7.689-4.14-15.082-8.872-23.066-12.716-7.007-2.631-13.011-6.448-18.061-11.258l0.022 0.020c-3.549-3.845-9.759-5.027-14.491-7.985-5.896-3.801-11.012-7.696-15.807-11.945l0.133 0.116c-4.888-5.433-10.211-10.288-15.977-14.582l-0.287-0.205c-7.199-4.885-13.418-10.448-18.822-16.732l-0.104-0.125c-5.308-5.254-10.247-10.85-14.795-16.764l-0.287-0.389c-3.253-3.549-5.619-7.689-8.872-10.646-7.553-7.733-14.128-16.475-19.49-25.99l-0.324-0.625c-5.323-9.759-10.055-15.674-14.195-23.066s-9.759-17.743-14.195-26.615-10.351-22.771-14.786-34.304c-2.662-7.097-3.845-14.786-6.21-22.18s-3.845-9.759-5.323-14.786-2.957-13.308-4.14-20.109-3.253-20.405-4.732-29.572c-0.078-1.018-0.122-2.204-0.122-3.401s0.044-2.383 0.132-3.557l-0.009 0.157c0-25.728 0-51.752 0-77.776 0.602-6.15 1.751-11.773 3.415-17.171l-0.162 0.61c0.071-0.709 0.11-1.533 0.11-2.365s-0.040-1.657-0.119-2.469l0.008 0.103c-0.034-0.813-0.053-1.768-0.053-2.726 0-9.46 1.866-18.484 5.251-26.723l-0.17 0.469c2.070-5.619 2.070-11.829 3.845-17.744s5.323-14.786 7.689-22.475 3.549-13.012 6.21-18.926 6.506-14.194 10.054-21.292 4.436-9.464 7.097-14.195 8.576-14.786 13.308-22.18 12.421-20.109 19.518-29.573 11.534-10.646 15.378-17.152c5.186-7.397 11.033-13.808 17.6-19.399l0.143-0.119c4.436-4.732 9.759-8.872 14.491-13.308s11.237-10.055 17.152-14.786 9.167-6.506 13.603-9.759l7.689-6.21c4.436-3.253 8.872-6.802 13.603-9.759s9.463-4.732 14.491-7.097l13.308-7.097 21.588-10.646c6.506-2.957 12.716-6.506 19.222-9.167s8.872-2.662 13.308-4.436 18.335-3.253 27.207-7.393c6.296-2.332 13.57-3.823 21.15-4.135l0.142-0.005 29.572-3.549 19.518-2.070c5.342-1.825 11.51-2.996 17.913-3.249l0.126-0.004c11.829 0 23.363 2.662 34.896 4.14h14.195c7.59 0.785 14.512 2.244 21.151 4.344l-0.746-0.203c8.576 3.253 18.631 1.774 26.615 7.393 1.774 0 5.027 0 7.393 0 10.928 3.295 20.142 6.911 28.993 11.163l-1.195-0.517c6.234 2.906 13.619 5.537 21.274 7.492l0.905 0.196c5.517 2.285 10.085 4.565 14.479 7.112l-0.58-0.311c2.753 1.264 4.984 2.448 7.144 3.738l-0.342-0.189 14.195 8.576 15.082 8.872 14.194 10.942c7.985 5.914 16.561 11.533 24.25 18.039s9.463 9.463 14.194 14.194 10.646 9.759 15.378 15.082 12.125 14.786 18.039 22.18v0c3.549 4.14 7.394 7.984 10.646 12.124s10.054 14.491 14.786 22.18 9.167 17.448 14.195 26.023c0 2.365 3.253 4.14 4.732 6.506 0.867 2.353 1.781 5.417 2.535 8.544l0.127 0.623h-7.689c-42.88 0-85.76 0-128.641 0-0.135 0.003-0.295 0.004-0.455 0.004-7.452 0-14.099-3.445-18.436-8.83l-0.035-0.046c-8.28-8.28-17.743-15.674-25.728-24.25-10.58-9.124-22.268-17.705-34.601-25.342l-1.181-0.681c-4.332-2.867-9.3-5.451-14.537-7.501l-0.545-0.188c-8.872-3.844-17.152-8.872-26.024-11.829s-18.926-4.14-29.572-6.21l-26.32-5.323h-0.592c-14.491 0-29.572 0-43.471 0-10.055 0-19.813 3.549-29.572 5.323-1.282-0.084-2.78-0.132-4.288-0.132s-3.006 0.048-4.491 0.142l0.202-0.011-44.95 16.856c-15.805 7.655-29.42 16.733-41.618 27.392l0.216-0.185c-7.312 4.899-13.695 10.155-19.519 15.97l0.001-0.001c-7.984 7.689-15.082 15.969-22.475 23.953s-7.985 8.576-11.534 13.308-5.914 9.463-8.872 14.194c-1.901 2.659-3.859 5.75-5.65 8.948l-0.265 0.515c-2.662 4.732-5.323 9.167-7.689 13.899l-9.759 20.701c-3.253 7.985-6.506 15.674-9.463 23.658-1.078 3.306-1.817 7.138-2.063 11.103l-0.007 0.134c-0.884 9.35-2.346 17.81-4.393 26.039l0.252-1.199c-2.734 11.102-4.303 23.846-4.303 36.958 0 4.27 0.167 8.501 0.493 12.687l-0.034-0.554c0.988 8.585 2.338 16.124 4.112 23.498l-0.268-1.319c0 1.774 0 3.845 0 5.619l3.549 15.673c-0.079 1.414-0.124 3.067-0.124 4.732s0.045 3.318 0.133 4.961l-0.010-0.229c1.775 5.914 3.845 11.237 5.619 16.856s2.957 10.351 5.027 15.378 6.506 14.491 10.055 21.588 4.732 9.167 7.393 13.603c1.956 3.605 4.014 6.701 6.313 9.597l-0.103-0.134c7.689 10.054 14.786 20.701 23.066 29.572 9.146 9.784 18.8 18.782 29.041 27.085l0.532 0.418c8.531 6.525 18.189 12.976 28.25 18.81l1.323 0.708c10.633 6.903 22.898 12.643 35.941 16.59l1.024 0.266c8.872 2.662 17.448 6.802 26.32 10.054l5.915 1.479 29.572 4.436c1.060 0.068 2.3 0.107 3.549 0.107s2.488-0.039 3.717-0.115l-0.169 0.008c11.237 0 22.18 0 33.121 0 13.005-0.66 25.019-1.927 36.829-3.802l-1.933 0.253c15.097-2.455 28.615-6.471 41.344-11.966l-1.126 0.433 20.996-8.28c4.486-2.008 8.271-4.082 11.871-6.415l-0.338 0.206c7.984-4.732 15.969-9.167 23.363-14.491s15.969-13.012 23.658-19.518c5.134-3.816 9.668-7.693 13.925-11.854l-0.025 0.025c4.314-4.86 8.49-10.162 12.346-15.704l0.37-0.561c5.027-6.21 10.351-12.421 14.786-18.926s7.984-13.899 11.829-20.996 5.915-10.942 8.576-16.561 2.662-5.619 4.436-9.759h-239.834v-121.247c3.869-0.804 8.53-1.435 13.275-1.756l0.329-0.018h361.672v-343.634c0-8.576 1.774-10.055 10.054-10.055h371.431c4.154 0.401 7.967 1.238 11.596 2.472l-0.358-0.106v118.29c-3.282 0.748-7.136 1.276-11.076 1.472l-0.161 0.007h-254.916c-2.587 6.404-4.087 13.829-4.087 21.606 0 2.809 0.196 5.573 0.575 8.279l-0.036-0.312v152.003c0 7.394 0 8.28 8.28 8.28h250.184c4.509 0.55 8.607 1.589 12.481 3.077l-0.356-0.12c-0.1 1.239-0.156 2.683-0.156 4.14s0.057 2.901 0.168 4.329l-0.012-0.189v103.8c0 7.689 0 7.689-8.28 7.689h-250.775c-8.576 0-11.534 3.253-11.534 11.534v184.237c0 8.576 0 9.759 9.167 9.759h276.8c8.576 0 8.576 0 8.576-8.576v-626.347c0-3.549 1.479-5.619 5.619-5.619h121.247c2.751 0.218 5.154 1.546 6.788 3.532l0.014 0.016c3.844 5.619 6.802 12.125 10.351 17.744l15.082 22.771c2.070 3.253 3.549 6.802 5.619 10.055l18.631 29.572c7.097 11.237 13.899 22.475 20.701 34.009s15.673 25.137 23.363 37.853c3.253 5.027 7.393 9.463 10.646 14.491s8.28 14.786 12.716 21.883 12.421 18.926 18.631 29.572c2.957 4.732 5.323 9.759 7.984 14.195l22.475 35.487c7.097 11.534 14.194 23.363 21.588 34.896 3.845 6.21 8.576 11.829 12.125 18.039s6.506 13.308 10.054 19.814 6.21 9.167 9.167 13.603l19.518 29.572 24.545 39.036c2.957 5.323 5.619 10.646 8.872 15.674s7.097 9.759 10.351 14.786 3.253 6.506 5.027 9.464l8.872 14.195 20.109 32.825c2.366 3.549 5.323 6.802 7.689 10.054h1.774v-512.197c0-7.985 2.662-10.646 10.646-10.646h371.136c9.464 0 10.351 0 10.351 9.759v111.784c-3.845 0-7.097 0-10.646 0h-256.099c0 4.14 0 7.985 0 11.829v168.859c0 9.759 0 9.759 9.464 9.759h245.157c5.545 0.487 10.586 1.323 15.491 2.51l-0.705-0.144c-0.085 1.326-0.133 2.876-0.133 4.436s0.048 3.11 0.143 4.646l-0.011-0.211c0 34.304 0 68.904 0 103.208 0 8.28 0 8.28-8.28 8.28h-252.55c-7.394 0-10.055 2.662-10.055 9.759v188.969c0 5.027 0 6.802 6.506 6.802h287.149v-629.896c-0.136-1.066-0.214-2.298-0.214-3.549s0.078-2.483 0.229-3.693l-0.015 0.145c0-2.662 2.957-3.549 6.21-3.549 67.13 0 134.555 0 201.685 0 23.363 0 46.725 2.365 70.087 2.957 10.253 1.168 19.482 3.038 28.408 5.62l-1.201-0.298 15.969 2.662 23.363 6.802 5.914 1.479 29.573 12.716c7.689 3.567 14.289 7.513 20.423 12.051l-0.314-0.222c8.033 5.64 15.080 11.467 21.641 17.795l-0.053-0.051c8.576 7.984 16.561 16.265 24.545 24.841 4.657 4.977 8.857 10.494 12.464 16.412l0.252 0.445c6.129 9.463 12.059 20.434 17.131 31.87l0.613 1.547c3.545 7.41 6.412 16.026 8.168 25.039l0.112 0.689c0 5.619 3.845 11.829 5.323 18.039s0 7.689 1.774 11.829 2.366 12.421 2.662 18.631c0 18.039 0 36.079 0 53.822-0.814 8.451-2.381 16.185-4.657 23.609l0.221-0.838s0 0 0 1.479c-2.070 9.759-3.845 19.518-5.915 29.572 0 2.070-1.774 4.14-2.365 6.21-5.027 11.237-9.463 23.066-15.378 34.304s-10.646 13.012-14.491 20.109c-6.574 10.846-14.641 20.042-24.050 27.643l-0.199 0.155c-7.792 7.025-16.28 13.73-25.191 19.863l-0.833 0.542c-5.131 3.461-11.047 6.814-17.219 9.709l-0.821 0.346c-11.829 5.914-23.954 11.829-36.079 17.152-3.094 0.726-6.739 1.253-10.468 1.47l-0.178 0.008-29.573 7.393c1.927 5.263 3.821 9.554 5.942 13.71l-0.323-0.697c2.662 4.732 6.21 9.167 9.464 13.899l17.152 26.32c4.14 6.506 7.689 13.012 11.534 19.518s9.167 13.899 13.308 20.701 10.055 17.152 15.674 25.433 9.463 12.716 13.899 19.518 7.985 14.491 12.421 21.293 11.237 16.561 16.561 24.841c1.473 3.062 3.049 5.679 4.834 8.133l-0.103-0.149c0.919 0.383 1.986 0.605 3.105 0.605s2.186-0.222 3.16-0.625l-0.055 0.020c6.21-8.576 11.829-17.448 18.039-26.023s10.942-12.716 15.969-19.518 8.872-12.716 13.308-18.926 6.506-7.689 9.463-11.534c7.097-9.759 13.604-19.518 20.701-29.572s14.786-17.744 21.883-26.911l17.744-23.363 21.883-29.572c5.619-7.689 11.237-15.674 17.152-23.363s11.534-13.899 17.152-21.292 13.308-18.926 20.109-29.572 10.646-12.125 15.673-18.631 12.421-18.039 18.926-27.207 9.464-11.829 14.195-18.039l14.786-19.814c2.957-3.844 6.506-7.393 9.464-11.237s6.802-10.055 10.351-15.082l14.195-18.039c5.027-6.21 9.759-12.716 14.491-18.926l18.335-23.066c5.027-6.802 9.463-14.194 14.491-20.996s8.872-10.942 13.308-16.561 10.055-12.716 14.786-19.222 10.351-13.603 15.082-20.701 5.915-8.576 8.872-12.716 4.14-5.323 6.506-8.28l23.363-29.572c4.732-5.915 8.576-12.716 13.308-18.631s12.421-14.195 18.039-21.884 13.308-18.335 19.814-27.503c2.070-2.662 3.845-5.323 5.914-7.689 6.21-7.689 12.421-15.378 18.926-22.771 1.283-1.28 3.054-2.070 5.010-2.070 0.006 0 0.012 0 0.018 0h684.309c8.28 0 9.167 2.070 9.167 9.167v277.982c-0.137 1.638-0.216 3.545-0.216 5.471s0.078 3.833 0.232 5.719l-0.017-0.247h2.070c0.969-2.114 1.786-4.586 2.325-7.16l0.041-0.233c0.595-7.202 2.495-13.832 5.466-19.838l-0.143 0.32c2.662-6.506 4.14-13.899 6.21-20.701s2.662-7.985 4.14-11.829 5.027-12.716 7.985-18.926 6.21-11.237 9.167-16.856c5.915-10.351 11.237-20.701 17.448-29.572s9.167-12.125 13.604-17.744 12.716-14.786 18.039-22.771c7.759-11.22 16.534-20.935 26.41-29.402l0.205-0.171c5.232-5.192 10.828-10.038 16.739-14.489l0.413-0.298c6.21-5.323 13.012-9.759 19.518-14.786l9.167-6.802c6.506-4.732 13.012-9.759 20.109-14.195s11.237-5.323 16.856-8.28l17.448-8.576 19.518-8.28 25.137-9.759c4.181-1.378 9.642-2.809 15.206-3.958l1.060-0.183 29.573-5.914 25.432-3.549c0.097 0 0.213 0.001 0.328 0.001 8.377 0 16.526-0.97 24.343-2.804l-0.718 0.142c4.929-1.266 10.587-1.993 16.415-1.993 1.925 0 3.831 0.080 5.716 0.235l-0.247-0.017c8.28 0 16.856 1.479 25.137 2.365s18.039 2.070 26.615 3.549 14.195 2.957 20.996 4.436 19.518 4.14 29.573 7.097 16.265 6.21 24.545 9.463c0.709-0.067 1.533-0.105 2.365-0.105s1.657 0.038 2.471 0.113l-0.104-0.007 18.926 8.872 18.926 8.28s0 0 1.774 0c5.396 4.061 11.516 7.716 18.013 10.688l0.618 0.254c7.394 4.732 14.194 10.351 21.292 15.673l8.872 6.506 25.137 21.588c7.394 6.802 15.082 13.308 22.18 20.405 5.268 5.725 10.403 11.891 15.226 18.306l0.447 0.62c6.506 8.28 12.716 16.561 18.631 25.137s15.082 21.588 21.883 32.53c3.097 5.474 6.274 12.092 9.038 18.92l0.426 1.19c4.732 10.646 10.054 20.701 13.604 31.347s5.914 24.841 10.054 36.67c2.070 5.323 0 12.716 7.394 16.265 0 0 0 4.732 0 7.394h1.479v-6.21q0-146.089 0-291.881c0-7.689 0-8.872 9.167-8.872h112.967c0.353-0.032 0.764-0.051 1.178-0.051 5.266 0 9.833 2.992 12.094 7.368l0.036 0.076c4.14 7.689 9.759 14.491 14.195 21.884s13.012 21.883 19.518 32.825c3.845 6.506 7.394 13.604 11.829 20.109s9.464 13.012 14.195 19.518 5.027 9.759 7.984 14.194c10.351 16.265 21.293 32.53 31.347 49.091 5.027 7.984 8.872 16.856 13.899 24.841s12.125 18.335 18.039 27.798 12.421 20.996 18.631 31.347c2.070 3.253 4.732 6.21 6.802 9.464 1.43 2.205 2.723 4.738 3.748 7.405l0.096 0.284c0.524 1.331 1.021 2.402 1.57 3.442l-0.091-0.189c6.802 10.646 13.604 21.293 20.701 31.939s11.533 15.969 16.561 24.25 9.167 16.856 14.195 25.137 13.012 20.405 19.518 29.573c2.366 3.549 5.027 7.097 7.097 10.646 8.576 14.195 16.561 29.572 25.432 42.88s18.926 29.572 28.094 43.768c6.21 9.759 11.829 20.109 17.744 29.572 2.365 4.14 4.732 8.28 7.394 12.125s4.14 2.957 5.027 0c0.87-2.548 1.405-5.487 1.478-8.541l0.001-0.035v-496.524h124.796v754.692h-126.275c-4.436-8.28-8.576-15.673-13.012-23.066s-10.351-17.744-15.969-26.32-10.351-14.786-15.378-22.771-10.055-17.448-15.673-26.023c-7.749-13.824-15.088-25.318-22.988-36.383l0.809 1.192c-4.997-7.45-10.297-16.346-15.152-25.514l-0.818-1.693c-6.21-10.351-13.012-20.405-19.222-29.572s-14.786-25.433-22.475-37.853c-4.436-7.097-10.351-13.308-14.786-20.701s-11.829-21.293-18.039-31.939c-2.957-5.027-7.394-9.167-10.646-13.899s-4.14-7.689-6.506-11.829-7.984-14.491-12.421-21.588-12.421-19.813-18.631-29.572-12.125-18.631-17.744-29.572-6.802-13.308-10.646-19.518-6.506-8.576-9.464-13.308-8.872-15.674-13.604-23.363-9.759-15.082-14.491-22.475l-14.786-23.362-13.308-21.588c-5.027-8.28-9.759-16.561-14.491-24.841-0.88-1.065-2.111-1.812-3.513-2.065l-0.036-0.005c-0.908 3.932-1.641 8.678-2.044 13.519l-0.025 0.38v506.579c0.571 5.901 1.51 11.236 2.822 16.423l-0.16-0.75h-126.571c1.335-3.725 2.279-8.046 2.649-12.531l0.012-0.185c0-97.294 0-194.292 0-291.586 0.257-0.75 0.406-1.615 0.406-2.514s-0.149-1.763-0.422-2.57l0.016 0.056c-2.366 6.506-4.732 13.012-6.802 19.518s-5.027 19.223-8.28 29.572-8.872 22.18-13.604 33.121-8.28 20.405-13.308 29.572c-4.158 7.753-8.176 14.229-12.544 20.443l0.419-0.629-9.759 15.673-7.097 9.464c-3.253 4.436-6.21 8.872-9.464 13.012s-4.436 3.844-6.21 5.914c-9.463 10.054-18.335 20.701-29.573 29.572-5.6 5.055-11.671 10-17.986 14.631l-0.645 0.451c-5.027 3.845-9.464 8.28-14.491 11.829s-15.378 11.534-23.362 16.856c-12.716 7.984-26.024 14.786-39.627 21.588-13.526 7.131-29.402 13.662-45.928 18.703l-1.979 0.519c-9.203 3.385-20.067 6.171-31.288 7.867l-0.946 0.118c-2.756 0.319-5.258 1.158-7.493 2.417l0.099-0.051c-6.29 2.998-13.67 4.748-21.46 4.748-0.461 0-0.921-0.006-1.378-0.018l0.068 0.001s-3.549 0-4.14 0c-1.856 2.39-4.731 3.913-7.961 3.913-0.956 0-1.88-0.134-2.755-0.383l0.071 0.017-12.125-3.549-1.479 3.549h-39.923c-2.366 0-4.436-2.070-7.394-3.549-5.027 8.872-12.124 1.479-18.631 0-1.464-0.5-3.349-1.010-5.271-1.417l-0.347-0.061c-10.71-0.127-20.856-2.399-30.075-6.405l0.503 0.194c-0.622-0.080-1.34-0.125-2.070-0.125s-1.448 0.046-2.154 0.134l0.084-0.008c-9.167-2.070-18.631-3.549-27.503-6.506-10.78-3.282-19.702-6.697-28.333-10.636l1.422 0.581c-8.798-2.826-16.435-6.437-23.483-10.892l0.417 0.246c-4.061-2.043-8.954-4.047-14.008-5.695l-0.778-0.22c-5.894-2.866-10.834-5.72-15.556-8.874l0.473 0.298-34.009-22.475s0 0-1.479-1.774c-14.491-12.716-29.573-25.433-43.176-38.74-7.532-7.207-14.5-14.832-20.936-22.9l-0.356-0.463c-5.426-6.515-10.778-13.748-15.711-21.279l-0.554-0.901c-8.576-12.716-17.152-25.137-24.545-38.149-4.724-8.075-9.578-17.795-13.834-27.829l-0.657-1.744c-3.549-8.872-6.21-18.039-9.464-27.207s-5.323-13.012-7.689-19.813 0-8.576-1.774-12.716c-0.417-2.875-1.14-5.465-2.15-7.906l0.079 0.218h-2.070c-0.806 2.64-1.432 5.753-1.757 8.955l-0.017 0.212v277.391c-0.128 1.681-0.202 3.641-0.202 5.619s0.074 3.938 0.217 5.878l-0.016-0.26h-128.049c0-3.253 1.775-5.619 2.662-8.28 0.070-0.885 0.11-1.916 0.11-2.957s-0.040-2.072-0.119-3.092l0.008 0.135v-615.11c-0.623-5.054-1.555-9.563-2.816-13.934l0.155 0.626h-134.26c-6.506 0-8.28 2.070-8.28 8.28v622.799c0.345 4.147 1.079 7.971 2.173 11.639l-0.103-0.402h-126.866v-642.317h-135.147c-0.618-0.226-1.331-0.357-2.074-0.357-3.347 0-6.076 2.648-6.206 5.964v0.012c-0.071 0.797-0.111 1.725-0.111 2.662s0.041 1.865 0.119 2.781l-0.008-0.119v632.853h-126.866c0.683-3.214 1.209-7.064 1.466-10.987l0.013-0.25v-144.314c0-7.985 0-7.985-7.985-7.985h-319.384c-0.025 0-0.054 0-0.083 0-6.417 0-11.898 4.007-14.077 9.656l-0.035 0.103c-6.802 8.28-13.308 16.561-19.814 25.137s-10.054 14.491-15.378 21.293-7.394 8.28-10.646 12.421c-8.479 9.682-16.646 20.291-24.126 31.402l-0.715 1.128c-8.28 14.195-20.405 25.433-29.573 39.627-2.662 4.732-7.985 7.984-9.463 13.899l-2.365 6.21zM4039.615 638.768l37.853-4.436c7.474-0.865 14.102-2.113 20.562-3.777l-1.045 0.228c4.845-1.433 8.868-2.942 12.758-4.691l-0.634 0.255c7.097-2.366 14.786-4.14 21.883-7.097 8.956-3.564 16.448-7.237 23.621-11.397l-0.85 0.455 29.573-18.335c2.059-1.214 3.796-2.386 5.461-3.649l-0.138 0.101c5.027-4.14 10.055-8.28 14.786-13.012 7.505-6.291 14.19-13.069 20.191-20.429l0.215-0.271c7.55-8.731 14.579-18.396 20.763-28.628l0.53-0.944c3.253-6.506 7.984-12.421 11.237-19.222s7.394-13.899 10.942-20.996c1.355-2.681 2.566-5.826 3.463-9.1l0.085-0.363c2.070-7.984 3.549-15.969 6.21-23.362 3.37-7.621 5.332-16.509 5.332-25.855 0-0.371-0.003-0.742-0.009-1.112l0.001 0.055c-0.070-0.973-0.109-2.108-0.109-3.253s0.040-2.28 0.118-3.405l-0.008 0.151c0-6.506 2.662-13.308 3.845-20.109 0.070-0.665 0.11-1.437 0.11-2.218s-0.040-1.553-0.118-2.314l0.008 0.095c0-8.872 0-18.039 0-26.615-1.11-8.292-2.559-15.505-4.423-22.55l0.283 1.259c0-7.985-1.775-15.969-3.549-23.658s-5.619-17.448-8.576-26.023c-1.87-6.35-3.982-11.744-6.492-16.908l0.282 0.643c-4.238-8.726-8.273-15.892-12.673-22.805l0.547 0.921c-5.186-9.523-10.28-17.545-15.836-25.21l0.459 0.665c-7.689-10.055-15.969-19.222-24.25-29.572-4.064-4.502-8.214-8.652-12.566-12.583l-0.15-0.133-18.926-12.125-8.576-5.914-24.25-13.603-18.631-10.055-5.915-2.070c-6.21-2.070-12.421-4.732-18.631-6.506s-12.421-2.365-18.631-3.549c-7.94-2.099-17.964-4.066-28.17-5.462l-1.402-0.157c-14.491 0-29.573 0-44.063 0h-3.845c-7.34 2.422-15.961 4.295-24.852 5.271l-0.581 0.052c-11.633 2.333-21.549 5.090-31.17 8.474l1.598-0.49c-2.662 0-5.323 3.549-8.28 3.845-11.287 2.46-21.217 7.088-29.778 13.453l0.206-0.146c-11.532 6.797-21.184 13.242-30.466 20.155l0.894-0.637c-4.051 2.969-7.621 5.975-10.977 9.201l0.034-0.033-15.378 14.491c-5.323 4.693-10.157 9.62-14.617 14.877l-0.169 0.205c-6.802 8.576-12.716 17.744-18.631 26.911s-10.646 16.561-15.082 25.137c-2.318 4.729-4.72 10.596-6.768 16.627l-0.329 1.117c-2.662 6.802-5.915 13.308-8.28 20.405-2.061 6.316-4.109 14.368-5.695 22.585l-0.22 1.37c-1.695 8.233-2.861 17.892-3.242 27.752l-0.011 0.341c0 20.996 0 42.289 0 63.581 0.236 4.306 1.083 8.341 2.459 12.121l-0.093-0.292c2.662 9.759 5.914 19.518 9.167 29.572 2.169 8.417 4.697 15.603 7.754 22.501l-0.361-0.913c4.654 10.45 9.494 19.282 14.955 27.671l-0.464-0.761c7.515 13.576 15.645 25.289 24.808 36.101l-0.263-0.317c14.519 17.212 31.171 31.984 49.703 44.123l0.866 0.533 31.642 18.926c4.064 2.613 8.74 5 13.653 6.912l0.542 0.186c7.959 1.752 14.875 3.991 21.488 6.803l-0.787-0.298c10.441 4.499 22.549 7.736 35.215 9.117l0.568 0.050c11.17 1.343 24.104 2.109 37.218 2.109 1.783 0 3.563-0.014 5.339-0.043l-0.268 0.003zM2162.051 370.249c2.957 0 5.323 3.253 7.689 2.957 5.667 0.254 12.314 0.399 18.993 0.399 15.598 0 31.012-0.789 46.203-2.33l-1.911 0.157c11.731-1.868 25.802-3.245 40.081-3.821l0.73-0.023h3.253l29.573-8.28c7.14-1.887 12.95-3.807 18.615-6.020l-1.167 0.401c6.455-2.564 11.71-5.047 16.795-7.802l-0.826 0.41c10.307-4.522 19.183-10.175 27.046-16.97l-0.135 0.114c7.097-7.097 13.899-15.082 20.701-22.475 0 0 0 0 0-1.479 3.845-7.985 7.689-15.674 11.237-23.363 2.046-4.050 3.332-8.8 3.546-13.828l0.002-0.070c0.439-5.609 0.689-12.147 0.689-18.743 0-12.478-0.896-24.746-2.626-36.746l0.162 1.37c-0.55-8.337-2.455-16.087-5.498-23.235l0.175 0.464c-4.713-8.407-9.905-15.673-15.788-22.311l0.114 0.131c-10.303-11.5-23.338-20.345-38.095-25.531l-0.644-0.197c-6.884-2.977-15.347-5.906-24.047-8.257l-1.385-0.319c-8.74-2.732-18.851-4.535-29.305-5.018l-0.268-0.010h-4.14c-6.994-1.766-15.453-3.226-24.090-4.080l-0.751-0.060c-29.572 0-56.484 0-84.873 0-7.985 0-8.576 0-8.576 8.576v236.581zM2995.111 170.042c-0.529 2.357-1.45 4.436-2.702 6.273l0.041-0.062-17.152 23.066-25.432 32.825-14.194 18.631c-5.027 6.802-9.759 13.899-15.082 20.996s-7.985 8.576-11.534 13.308c-7.985 10.351-15.674 20.996-23.363 31.347s-9.167 11.534-13.603 17.744-14.491 19.222-21.588 29.572-8.872 12.125-13.603 18.039-9.759 13.603-15.082 20.405-7.097 7.689-10.351 11.829l-13.899 19.814-22.475 29.572c-2.070 2.957-4.732 5.619-6.802 8.576l-4.14 7.394c2.307 0.807 5.010 1.43 7.803 1.757l0.182 0.017h217.358c8.872 0 10.054-1.479 10.054-10.351v-290.403s0-2.662 0-3.844c-1.286-2.476-2.761-4.612-4.465-6.54l0.029 0.035z"></path>
</svg>
